#!OML:ASF X:\für Bonn\!DataBase\2005_08_11_Bastian_Final\c3d\Bastian.ASF
:FULLY-SPECIFIED
:DEGREES
541
root -0.30867 1.05958 26.1127 -996.322 -1.87811 -901.781
lowerback 10.0005 -3.02322 2.5721
upperback 16.2312 -1.56148 -0.923794
thorax 11.9025 0.900188 -2.16374
lowerneck 2.34571 -5.57651 -5.83759
upperneck 27.963 -4.36124 -1.08825
head 8.46666 -1.2753 0.567627
rclavicle 1.35174e-014 -2.94201e-014
rhumerus -37.3858 48.1971 -81.9819
rradius 35.2386
rwrist 4.68734
rhand -18.1071 4.40774
rfingers 7.12502
rthumb 8.16699 -25.4144
lclavicle 1.35174e-014 -2.94201e-014
lhumerus -217.15 -154.459 264.014
lradius 33.6931
lwrist 5.07636
lhand -15.0851 -11.4661
lfingers 7.12502
lthumb 11.0826 18.2213
rfemur -6.41322 5.7614 24.1229
rtibia 32.3548
rfoot 1.62851 -13.193
rtoes -9.98851
lfemur 0.101553 1.03023 -18.804
ltibia 22.0485
lfoot -3.00146 9.29047
ltoes 3.80638
542
root -0.307509 1.06399 26.1174 -996.321 -1.8563 -901.651
lowerback 9.82626 0.157528 3.08493
upperback 16.0438 -2.07111 -0.103331
thorax 11.8664 -1.90746 -2.09697
lowerneck 2.25555 -5.59079 -5.73677
upperneck 27.8814 -4.41333 -1.11474
head 8.45006 -1.30457 0.534961
rclavicle -1.59028e-015 3.57812e-015
rhumerus -37.6585 48.3992 -82.3392
rradius 34.9031
rwrist 4.62965
rhand -17.9106 4.59451
rfingers 7.12502
rthumb 8.35657 -25.2202
lclavicle -1.59028e-015 3.57812e-015
lhumerus -217.265 -153.368 264.54
lradius 33.4749
lwrist 5.86813
lhand -15.0787 -11.2072
lfingers 7.12502
lthumb 11.0888 18.4798
rfemur -6.32613 5.75523 24.1299
rtibia 32.2998
rfoot 1.34481 -13.4929
rtoes -10.1253
lfemur 0.184965 1.13542 -18.7208
ltibia 21.9367
lfoot -3.22688 9.37623
ltoes 4.00724
543
root -0.306562 1.06725 26.1219 -996.298 -1.85365 -901.511
lowerback 9.64496 0.124154 3.0314
upperback 15.8557 -2.05707 -0.0868903
thorax 11.7405 -1.87621 -2.0407
lowerneck 2.11431 -5.60681 -5.64575
upperneck 27.8412 -4.46176 -1.14233
head 8.45735 -1.33283 0.502948
rclavicle -2.38542e-015 -3.97569e-016
rhumerus -37.956 48.6437 -82.7257
rradius 34.5955
rwrist 4.52158
rhand -17.7406 4.72868
rfingers 7.12502
rthumb 8.52064 -25.0794
lclavicle -2.38542e-015 -3.97569e-016
lhumerus -217.398 -152.161 265.104
lradius 33.3165
lwrist 6.78733
lhand -15.0284 -10.8647
lfingers 7.12502
lthumb 11.1373 18.8198
rfemur -6.26667 5.78366 24.1137
rtibia 32.2465
rfoot 1.02832 -13.8275
rtoes -9.93076
lfemur 0.232182 1.31903 -18.6436
ltibia 21.8297
lfoot -3.39419 9.41237
ltoes 4.28548
544
root -0.305644 1.07075 26.1265 -996.3 -1.85443 -901.372
lowerback 9.51538 0.100587 2.98673
upperback 15.6509 -2.02582 -0.0748922
thorax 11.5656 -1.83561 -1.99136
lowerneck 2.03298 -5.62065 -5.57809
upperneck 27.773 -4.5236 -1.10132
head 8.44685 -1.36224 0.498423
rclavicle -9.54166e-015 1.31198e-014
rhumerus -38.2548 48.7178 -83.104
rradius 34.225
rwrist 4.51853
rhand -17.5689 4.9551
rfingers 7.12502
rthumb 8.68635 -24.8462
lclavicle -9.54166e-015 1.31198e-014
lhumerus -217.618 -150.807 265.758
lradius 33.1872
lwrist 7.79937
lhand -14.993 -10.4986
lfingers 7.12502
lthumb 11.1715 19.184
rfemur -6.1827 5.80084 24.0948
rtibia 32.1988
rfoot 0.702128 -14.1627
rtoes -9.93939
lfemur 0.315692 1.40767 -18.5833
ltibia 21.719
lfoot -3.59798 9.52042
ltoes 4.81416
545
root -0.305018 1.07461 26.1305 -996.287 -1.83129 -901.253
lowerback 9.35749 0.0727182 2.95838
upperback 15.4623 -2.00679 -0.0559245
thorax 11.4277 -1.80132 -1.94624
lowerneck 1.88158 -5.63227 -5.47188
upperneck 27.7209 -4.56825 -1.13538
head 8.45085 -1.38935 0.461483
rclavicle 6.36111e-015 -1.19271e-015
rhumerus -38.5411 48.9032 -83.4858
rradius 33.8841
rwrist 4.42821
rhand -17.4159 5.14629
rfingers 7.12502
rthumb 8.83403 -24.6488
lclavicle 6.36111e-015 -1.19271e-015
lhumerus -217.803 -149.482 266.396
lradius 33.0572
lwrist 8.78689
lhand -14.975 -10.1258
lfingers 7.12502
lthumb 11.1888 19.5559
rfemur -6.11633 5.81986 24.0946
rtibia 32.1551
rfoot 0.386306 -14.4841
rtoes -9.79335
lfemur 0.391387 1.4645 -18.5092
ltibia 21.6035
lfoot -3.85784 9.67329
ltoes 5.05378
546
root -0.304199 1.07803 26.1337 -996.277 -1.83196 -901.122
lowerback 9.21113 0.0421592 2.89239
upperback 15.2779 -1.99424 -0.0375291
thorax 11.2889 -1.7757 -1.88111
lowerneck 1.72378 -5.63482 -5.38622
upperneck 27.6522 -4.60916 -1.13888
head 8.45153 -1.41592 0.438197
rclavicle 1.35174e-014 -2.18663e-014
rhumerus -38.7807 49.0074 -83.81
rradius 33.5349
rwrist 4.43854
rhand -17.2317 5.30566
rfingers 7.12502
rthumb 9.01181 -24.4818
lclavicle 1.35174e-014 -2.18663e-014
lhumerus -218.043 -148.101 267.09
lradius 32.9803
lwrist 9.88189
lhand -14.9151 -9.77066
lfingers 7.12502
lthumb 11.2467 19.9079
rfemur -6.05624 5.74881 24.0599
rtibia 32.1195
rfoot 0.0888517 -14.755
rtoes -9.65577
lfemur 0.471819 1.53725 -18.4462
ltibia 21.482
lfoot -4.115 9.81806
ltoes 5.76836
547
root -0.303469 1.08097 26.1373 -996.264 -1.80723 -901.014
lowerback 9.08067 0.02004 2.854
upperback 15.091 -1.97195 -0.00578153
thorax 11.1396 -1.74419 -1.81651
lowerneck 1.54354 -1.91325 -5.21474
upperneck 27.4764 -5.55381 0.327025
head 8.43143 -4.62105 0.417293
rclavicle -1.11319e-014 -1.19271e-014
rhumerus -38.9741 49.0503 -84.0687
rradius 33.1519
rwrist 4.50873
rhand -17.0493 5.46837
rfingers 7.12502
rthumb 9.18779 -24.3115
lclavicle -1.11319e-014 -1.19271e-014
lhumerus -218.27 -146.617 267.827
lradius 32.8908
lwrist 11.015
lhand -14.8607 -9.40426
lfingers 7.12502
lthumb 11.2991 20.2714
rfemur -5.99392 5.75309 24.0663
rtibia 32.0824
rfoot -0.23691 -15.0803
rtoes -9.52859
lfemur 0.551651 1.46283 -18.3836
ltibia 21.3669
lfoot -4.46963 10.1121
ltoes 6.41386
548
root -0.303587 1.08463 26.1409 -996.252 -1.80949 -900.911
lowerback 8.93974 -0.01102 2.80156
upperback 14.9098 -1.96127 -0.00688526
thorax 11.0026 -1.718 -1.78072
lowerneck 1.37572 -1.95652 -5.08638
upperneck 27.3992 -5.54964 0.286277
head 8.42909 -4.58723 0.381917
rclavicle -3.97569e-015 8.54774e-015
rhumerus -39.19 49.1687 -84.4369
rradius 32.7604
rwrist 4.48681
rhand -16.9458 5.48964
rfingers 7.12502
rthumb 9.28765 -24.2858
lclavicle -3.97569e-015 8.54774e-015
lhumerus -218.496 -145.133 268.492
lradius 32.8223
lwrist 12.22
lhand -14.6934 -9.13444
lfingers 7.12502
lthumb 11.4605 20.5323
rfemur -5.93863 5.71597 24.0255
rtibia 32.0543
rfoot -0.551337 -15.3653
rtoes -9.50365
lfemur 0.63935 1.44316 -18.3452
ltibia 21.2462
lfoot -4.77043 10.3468
ltoes 7.08404
549
root -0.303642 1.08732 26.143 -996.24 -1.81018 -900.819
lowerback 8.80922 -0.0441498 2.71398
upperback 14.7404 -1.96139 0.0215287
thorax 10.8753 -1.70549 -1.69438
lowerneck 1.14664 -1.99965 -4.97246
upperneck 27.3339 -5.51757 0.172018
head 8.43959 -4.54495 0.324667
rclavicle 7.15625e-015 -3.8763e-014
rhumerus -39.3479 49.2993 -84.6969
rradius 32.384
rwrist 4.47172
rhand -16.8205 5.50139
rfingers 7.12502
rthumb 9.40854 -24.2686
lclavicle 7.15625e-015 -3.8763e-014
lhumerus -218.647 -143.792 269.173
lradius 32.6563
lwrist 13.319
lhand -14.5363 -8.90615
lfingers 7.12502
lthumb 11.612 20.7521
rfemur -5.89065 5.65789 23.989
rtibia 32.0269
rfoot -0.852919 -15.6395
rtoes -9.48938
lfemur 0.724519 1.36743 -18.3153
ltibia 21.132
lfoot -5.15196 10.6549
ltoes 7.7247
550
root -0.304102 1.08995 26.1454 -996.241 -1.78511 -900.744
lowerback 8.70039 -0.0739529 2.6743
upperback 14.5735 -1.95633 0.0297443
thorax 10.7385 -1.68527 -1.65614
lowerneck 0.918584 -2.03532 -4.84601
upperneck 27.2737 -5.49403 0.117596
head 8.45318 -4.50172 0.284599
rclavicle 3.97569e-016 -1.03368e-014
rhumerus -39.5217 49.4097 -85.0227
rradius 32.0026
rwrist 4.42419
rhand -16.7246 5.4481
rfingers 7.12502
rthumb 9.50105 -24.3177
lclavicle 3.97569e-016 -1.03368e-014
lhumerus -218.804 -142.618 269.746
lradius 32.4748
lwrist 14.2308
lhand -14.3273 -8.80575
lfingers 7.12502
lthumb 11.8135 20.8411
rfemur -5.82641 5.62346 23.9813
rtibia 32.0081
rfoot -1.1783 -15.931
rtoes -9.50736
lfemur 0.824079 1.29014 -18.2577
ltibia 21.0134
lfoot -5.52873 11.0111
ltoes 8.29645
551
root -0.304867 1.09218 26.1486 -996.229 -1.78755 -900.682
lowerback 8.57496 -0.102638 2.59866
upperback 14.4109 -1.95265 0.047648
thorax 10.6177 -1.67027 -1.58856
lowerneck 0.691532 -2.07113 -4.72817
upperneck 27.1815 -5.45414 0.0221155
head 8.45427 -4.45158 0.234624
rclavicle -5.1684e-015 -7.95139e-016
rhumerus -39.7675 49.6761 -85.4071
rradius 31.6635
rwrist 4.17587
rhand -16.6918 5.30543
rfingers 7.12502
rthumb 9.53273 -24.4589
lclavicle -5.1684e-015 -7.95139e-016
lhumerus -218.908 -141.693 270.261
lradius 32.2343
lwrist 14.9358
lhand -14.0503 -8.75778
lfingers 7.12502
lthumb 12.0806 20.8735
rfemur -5.7844 5.58641 23.9379
rtibia 31.9901
rfoot -1.49636 -16.2343
rtoes -9.47533
lfemur 0.90549 1.23514 -18.2238
ltibia 20.9038
lfoot -5.91823 11.303
ltoes 9.10779
552
root -0.305891 1.09396 26.1506 -996.217 -1.80727 -900.63
lowerback 8.44763 -0.118738 2.5034
upperback 14.2651 -1.93587 0.0574098
thorax 10.5191 -1.65187 -1.52006
lowerneck 0.382401 -2.1155 -4.59656
upperneck 27.1426 -5.43068 -0.0527049
head 8.48941 -4.40698 0.184506
rclavicle 9.54166e-015 -7.35503e-015
rhumerus -40.0295 49.9204 -85.791
rradius 31.3915
rwrist 3.88808
rhand -16.6441 5.09021
rfingers 7.12502
rthumb 9.57879 -24.672
lclavicle 9.54166e-015 -7.35503e-015
lhumerus -218.924 -140.85 270.707
lradius 31.9303
lwrist 15.54
lhand -13.8206 -8.72066
lfingers 7.12502
lthumb 12.302 20.8975
rfemur -5.74452 5.56031 23.8771
rtibia 31.978
rfoot -1.80975 -16.5369
rtoes -9.5094
lfemur 0.981584 1.11486 -18.234
ltibia 20.7957
lfoot -6.27552 11.6734
ltoes 9.29055
